<svg xmlns="http://www.w3.org/2000/svg" viewBox="0 0 108 108" width="108" height="108" role="img" aria-label="Container">
  <!-- Single colour, transparent background: the Android 13 themed-icon foreground. The system recolours it. Mark sits in the 66 dp safe circle. -->
  <g fill="#1A1D1B" transform="translate(54 54) scale(1.25) translate(-24 -25.5)">
    <rect x="6" y="9" width="36" height="9" rx="3.5"/>
    <path fill-rule="evenodd" d="M14 21H34A5 5 0 0 1 39 26V37A5 5 0 0 1 34 42H14A5 5 0 0 1 9 37V26A5 5 0 0 1 14 21ZM20 26.5A2 2 0 0 0 18 28.5A2 2 0 0 0 20 30.5H28A2 2 0 0 0 30 28.5A2 2 0 0 0 28 26.5Z"/>
  </g>
</svg>
